<svg xmlns="http://www.w3.org/2000/svg" xmlns:xlink="http://www.w3.org/1999/xlink" width="100" zoomAndPan="magnify" viewBox="0 0 75 74.999997" height="100" preserveAspectRatio="xMidYMid meet" version="1.0"><defs><g/><clipPath id="e8f2580975"><rect x="0" width="42" y="0" height="75"/></clipPath><clipPath id="f5fb5e3978"><rect x="0" width="55" y="0" height="75"/></clipPath><clipPath id="c96161d980"><rect x="0" width="75" y="0" height="75"/></clipPath></defs><g transform="matrix(1, 0, 0, 1, 0, -0.000000000000001893)"><g clip-path="url(#c96161d980)"><g transform="matrix(1, 0, 0, 1, 0, -0.000000000000001893)"><g clip-path="url(#e8f2580975)"><g fill="#ff6b35" fill-opacity="1"><g transform="translate(-3.576501, 54.681554)"><g><path d="M 16.234375 -9.46875 L 40.9375 -9.46875 L 40.9375 0 L 4.0625 0 L 4.0625 -47.375 L 16.234375 -47.375 Z M 16.234375 -9.46875 "/></g></g></g></g></g><g transform="matrix(1, 0, 0, 1, 20, -0.000000000000001893)"><g clip-path="url(#f5fb5e3978)"><g fill="#ff6b35" fill-opacity="1"><g transform="translate(0.235588, 72.653583)"><g><path d="M 39.890625 -39.890625 C 39.890625 -43.015625 38.320312 -44.578125 35.1875 -44.578125 L 21.890625 -44.578125 C 18.765625 -44.578125 17.203125 -43.015625 17.203125 -39.890625 L 17.203125 -14.859375 C 17.203125 -11.734375 18.765625 -10.171875 21.890625 -10.171875 L 35.1875 -10.171875 C 38.320312 -10.171875 39.890625 -11.734375 39.890625 -14.859375 Z M 53.953125 -14.859375 C 53.953125 -9.378906 52.710938 -5.398438 50.234375 -2.921875 C 47.765625 -0.453125 43.789062 0.78125 38.3125 0.78125 L 18.765625 0.78125 C 13.296875 0.78125 9.320312 -0.453125 6.84375 -2.921875 C 4.363281 -5.398438 3.125 -9.378906 3.125 -14.859375 L 3.125 -39.890625 C 3.125 -45.359375 4.363281 -49.332031 6.84375 -51.8125 C 9.320312 -54.289062 13.296875 -55.53125 18.765625 -55.53125 L 38.3125 -55.53125 C 43.789062 -55.53125 47.765625 -54.289062 50.234375 -51.8125 C 52.710938 -49.332031 53.953125 -45.359375 53.953125 -39.890625 Z M 53.953125 -14.859375 "/></g></g></g></g></g></g></g></svg>