<svg width="24" height="24" viewBox="0 0 24 24" fill="none" xmlns="http://www.w3.org/2000/svg">
<path fill-rule="evenodd" clip-rule="evenodd" d="M17.3802 10.146L17.3797 10.1469C18.3241 11.2905 18.8886 12.7388 18.8886 14.3141C18.8886 15.9129 18.3073 17.3809 17.3374 18.5321L17.2539 18.6313L17.2318 18.5053C17.2129 18.3981 17.1908 18.29 17.1651 18.1809C16.6797 16.1215 15.0982 14.3555 12.4954 12.9256C10.7378 11.9627 9.7317 10.8032 9.46755 9.48583C9.29696 8.63393 9.42379 7.77827 9.66889 7.04538C9.91392 6.31272 10.2784 5.69887 10.5881 5.3293L11.6008 4.13348C11.7783 3.92381 12.1106 3.92381 12.2882 4.13348L17.3802 10.146ZM18.9817 8.95147L12.1953 0.937629C12.0658 0.784625 11.8232 0.784625 11.6936 0.937629L4.90702 8.95111L4.88512 8.97802C3.63627 10.4745 2.88892 12.3764 2.88892 14.4466C2.88892 19.2683 6.94314 23.1771 11.9445 23.1771C16.9458 23.1771 21 19.2683 21 14.4466C21 12.3764 20.2527 10.4745 19.0038 8.97802L18.9817 8.95147ZM6.53084 10.1202L7.13814 9.40307L7.15648 9.53536C7.17101 9.64022 7.18863 9.74558 7.20953 9.85138C7.60229 11.8414 9.00535 13.5007 11.3511 14.7858C13.3902 15.9065 14.5774 17.1952 14.9194 18.6086C15.0621 19.1984 15.0876 19.7787 15.0258 20.2861L15.022 20.3175L14.9926 20.3314C14.0723 20.7656 13.0377 21.0092 11.9442 21.0092C8.10914 21.0092 4.99999 18.0118 4.99999 14.3141C4.99999 12.7265 5.57315 11.2678 6.53084 10.1202Z" fill="#4CA3FF"/>
</svg>
